<?xml version="1.0" encoding="utf-8"?>
<!-- Generator: Adobe Illustrator 23.0.0, SVG Export Plug-In . SVG Version: 6.00 Build 0)  -->
<svg version="1.1" id="Calque_1" xmlns="http://www.w3.org/2000/svg" xmlns:xlink="http://www.w3.org/1999/xlink" x="0px" y="0px"
	 viewBox="0 0 18 18" style="enable-background:new 0 0 18 18;" xml:space="preserve">
<path d="M9,6.8c0.9,0,1.8,0.3,2.5,0.8c1,0.7,1.8,1.6,2.4,2.2c-0.6,0.7-1.4,1.6-2.4,2.2c-0.7,0.5-1.6,0.8-2.5,0.8S7.2,12.5,6.5,12
	c-1-0.7-1.8-1.6-2.4-2.2c0.6-0.7,1.4-1.6,2.4-2.2C7.2,7,8.1,6.8,9,6.8 M9,5.3c-1.3,0-2.4,0.4-3.3,1c-2,1.4-3.4,3.5-3.4,3.5
	s1.4,2.1,3.4,3.5c0.9,0.6,2.1,1,3.3,1s2.4-0.4,3.3-1c2-1.4,3.4-3.5,3.4-3.5s-1.4-2.1-3.4-3.5C11.4,5.6,10.3,5.3,9,5.3z M9,12
	c-1.2,0-2.3-1-2.3-2.3s1-2.3,2.3-2.3s2.3,1,2.3,2.3S10.2,12,9,12z"/>
</svg>
