<?xml version="1.0" encoding="utf-8"?>
<!-- Generator: Adobe Illustrator 23.0.0, SVG Export Plug-In . SVG Version: 6.00 Build 0)  -->
<svg version="1.1" id="Calque_1" xmlns="http://www.w3.org/2000/svg" xmlns:xlink="http://www.w3.org/1999/xlink" x="0px" y="0px"
	 viewBox="0 0 18 18" style="enable-background:new 0 0 18 18;" xml:space="preserve">
<path d="M12.6,15.7c-0.2,0-0.3,0-0.5-0.1l-0.1,0L9,13.8l-3.1,1.8l-0.1,0c-0.4,0.2-0.8,0.1-1.1-0.1c-0.4-0.3-0.5-0.7-0.4-1.1L5,10.9
	L3.8,9.8L2.4,8.5L2.3,8.4C2,8.2,1.9,7.7,2,7.3c0.1-0.4,0.5-0.7,0.9-0.8l0.1,0l3.5-0.4L8,2.9l0-0.1c0.2-0.4,0.6-0.6,1-0.6
	c0.4,0,0.8,0.2,1,0.6l0,0.1l1.5,3.2L15,6.6l0.1,0c0.4,0.1,0.7,0.4,0.9,0.8c0.1,0.4,0,0.8-0.3,1.1l-0.1,0.1L13,10.9l0.7,3.5
	c0.1,0.4-0.1,0.9-0.4,1.1C13.1,15.7,12.9,15.7,12.6,15.7z"/>
</svg>
