<svg xmlns="http://www.w3.org/2000/svg" viewBox="0 0 417 433"><title>Fichier 1</title><g id="Calque_2" data-name="Calque 2"><g id="Calque_1-2" data-name="Calque 1"><path d="M308.42,289.66a141.71,141.71,0,0,0,26.44-11.3,146.64,146.64,0,0,0,52.07-48.76A150.71,150.71,0,0,0,411,147.5C411,65.49,346.31,0,266.5,0H213l52.28,69h1.08c42.72,0,77.36,35.59,77.36,79.5a81.14,81.14,0,0,1-2.63,20.59,78.9,78.9,0,0,1-48,54.06A75.36,75.36,0,0,1,266.36,228c-1.6,0-3.19-.05-4.76-.15l-71.27-94.08L142.7,70.88,89,0H0V433H71V93.73L122.68,162l94.94,125.33L328,433h89Z"/></g></g></svg>