<?xml version="1.0" encoding="utf-8"?>
<!-- Generator: Adobe Illustrator 23.0.1, SVG Export Plug-In . SVG Version: 6.00 Build 0)  -->
<svg version="1.1" id="Layer_1" xmlns="http://www.w3.org/2000/svg" xmlns:xlink="http://www.w3.org/1999/xlink" x="0px" y="0px"
	 viewBox="0 0 703 709" style="enable-background:new 0 0 703 709;" xml:space="preserve">
<path d="M0,0v709h703V0H0z M471,571L360.6,425.3L265.7,300L214,231.7V571h-71V138h89l53.7,70.9l47.6,62.9l71.3,94.1
	c1.6,0.1,3.2,0.2,4.8,0.2c9.1,0,18.2-1.6,26.7-4.8c23.8-9.2,41.7-29.3,48-54.1c1.8-6.7,2.6-13.6,2.6-20.6
	c0-43.9-34.6-79.5-77.4-79.5h-1.1L356,138h53.5c79.8,0,144.5,65.5,144.5,147.5c0.1,29.1-8.3,57.6-24.1,82.1
	c-13.1,20.3-31,37-52.1,48.8c-8.4,4.7-17.3,8.4-26.4,11.3L560,571H471z"/>
<title>Fichier 1</title>
</svg>
