<svg id="Layer_1" data-name="Layer 1" xmlns="http://www.w3.org/2000/svg" viewBox="0 0 40.93 40.93"><defs><style>.cls-1{fill:#1b75bb;}.cls-2{fill:#fff;}</style></defs><title>skill</title><rect class="cls-1" width="40.93" height="40.93"/><path class="cls-2" d="M11.19,12.67a24.34,24.34,0,0,0-.45,3.21,12,12,0,0,0,4.42,9.46,13,13,0,0,0,10.59,3.3,9.41,9.41,0,0,0,5.54-2.54.56.56,0,0,1,.26-.15,9.49,9.49,0,0,1-2.39,3,11.66,11.66,0,0,1-8.53,2.56A13.39,13.39,0,0,1,8.77,20.43,8.88,8.88,0,0,1,11.19,12.67Z"/><path class="cls-2" d="M17.44,10.45C16,15.13,18.82,19,21.83,20.78c3.26,1.88,7.57,2,10.44-1a6.86,6.86,0,0,1-3.69,3.57,9.21,9.21,0,0,1-10.25-2.08,8.32,8.32,0,0,1-2.54-7.54A7.1,7.1,0,0,1,17.44,10.45Z"/><path class="cls-2" d="M22.43,9.38a5.8,5.8,0,0,0,3.29,6.17,5.19,5.19,0,0,0,5.64,0,4.17,4.17,0,0,1-4,1.94A5.75,5.75,0,0,1,22.08,14,4.27,4.27,0,0,1,22.43,9.38Z"/></svg>