<?xml version="1.0" encoding="utf-8"?>
<!-- Generator: Adobe Illustrator 23.0.1, SVG Export Plug-In . SVG Version: 6.00 Build 0)  -->
<svg version="1.1" id="Layer_1" xmlns="http://www.w3.org/2000/svg" xmlns:xlink="http://www.w3.org/1999/xlink" x="0px" y="0px"
	 viewBox="0 0 40.9 40.9" style="enable-background:new 0 0 40.9 40.9;" xml:space="preserve">
<style type="text/css">
	.st0{fill:#EC4000;}
	.st1{fill:#FFFFFF;}
	.st2{fill:#EA5C0B;}
	.st3{fill:#F8F7F8;}
	.st4{fill:#4EC1F0;}
	.st5{fill:#E73A80;}
</style>
<g>
	<rect class="st4" width="40.9" height="40.9"/>
	<path class="st3" d="M14.9,12.4c2.2,0,3.8,0.4,4.9,1.3c1,0.8,1.6,2.2,1.7,3.7c0,1.7-0.5,3-1.5,3.9c-1.2,1.2-3,1.7-4.9,1.7
		c-0.4,0-0.8,0-1.1-0.1l0,6l-3.5,0l0-16.2C11.4,12.6,12.9,12.4,14.9,12.4 M13.9,20.2c0.3,0.1,0.6,0.1,1,0.1c1.9,0,2.9-1.1,2.9-2.7
		c0-1.5-0.9-2.5-2.7-2.5c-0.6,0-1.1,0.1-1.3,0.1L13.9,20.2z M23,25.8c0.6,0.4,1.9,0.8,2.9,0.8c1,0,1.5-0.4,1.5-1
		c0-0.6-0.4-0.9-1.6-1.4c-2.3-0.9-3.1-2.2-3.1-3.5c0-2.2,1.8-3.9,4.6-3.9c1.3,0,2.4,0.3,3.1,0.6l-0.6,2.5c-0.5-0.3-1.4-0.6-2.3-0.6
		c-0.9,0-1.4,0.4-1.4,1c0,0.6,0.4,0.9,1.8,1.4c2.1,0.8,3,2,3,3.6c0,2.3-1.7,3.8-4.9,3.8c-1.4,0-2.7-0.3-3.5-0.8L23,25.8z"/>
</g>
</svg>
