<svg id="Layer_1" data-name="Layer 1" xmlns="http://www.w3.org/2000/svg" viewBox="0 0 40.93 40.93"><defs><style>.cls-1{fill:#21759b;}.cls-2{fill:#fff;}</style></defs><title>skill</title><rect class="cls-1" width="40.93" height="40.93"/><path class="cls-2" d="M34.2,20.58A13.61,13.61,0,1,1,20.62,7,13.62,13.62,0,0,1,34.2,20.58ZM20.6,33.46A12.88,12.88,0,1,0,7.71,20.58,12.91,12.91,0,0,0,20.6,33.46Z"/><path class="cls-2" d="M26.38,27.72l-4.24-12.6L23.38,15c.39-.05.56-.22.52-.49s-.26-.39-.63-.38c-1.32.05-2.64.11-4,.13-.59,0-1.19-.07-1.78-.12s-.77.17-.67.49a.56.56,0,0,0,.35.34,6.52,6.52,0,0,0,1,.11.41.41,0,0,1,.39.32c.53,1.49,1.08,3,1.61,4.46a.94.94,0,0,1,0,.5c-.79,2.38-1.58,4.77-2.38,7.15,0,.08-.07.16-.16.34L13.41,15.11,14.69,15c.36,0,.52-.21.48-.48s-.25-.39-.63-.37l-3.3.13a4.33,4.33,0,0,1-.45,0,11.5,11.5,0,0,1,6.93-5A11.35,11.35,0,0,1,28.44,12l-.38.05a2,2,0,0,0-1.54,2.73,9.17,9.17,0,0,0,.81,1.63,7.79,7.79,0,0,1,1.07,2.52,6.45,6.45,0,0,1-.17,2.93c-.56,1.88-1.15,3.75-1.73,5.62C26.48,27.54,26.45,27.58,26.38,27.72Z"/><path class="cls-2" d="M24.52,31.65c-.84.19-1.62.41-2.42.52a11.5,11.5,0,0,1-4.41-.26c-.45-.12-.45-.12-.3-.54Q19,26.63,20.64,21.9a.62.62,0,0,1,.22-.29Z"/><path class="cls-2" d="M10,15.85,15.57,31c-1.37-.09-4.41-3.05-5.5-5.37a11.6,11.6,0,0,1-.17-9.79Z"/><path class="cls-2" d="M30.88,15.05A11.39,11.39,0,0,1,32,23a11.52,11.52,0,0,1-5.5,7.67l-.1-.05c0-.13.07-.27.11-.4q1.86-5.34,3.71-10.68a10.31,10.31,0,0,0,.59-3.65c0-.28,0-.55-.07-.83Z"/></svg>