<?xml version="1.0" encoding="utf-8"?>
<!-- Generator: Adobe Illustrator 23.0.1, SVG Export Plug-In . SVG Version: 6.00 Build 0)  -->
<svg version="1.1" id="Layer_1" xmlns="http://www.w3.org/2000/svg" xmlns:xlink="http://www.w3.org/1999/xlink" x="0px" y="0px"
	 viewBox="0 0 40.9 40.9" style="enable-background:new 0 0 40.9 40.9;" xml:space="preserve">
<style type="text/css">
	.st0{fill:#EC4000;}
	.st1{fill:#FFFFFF;}
	.st2{fill:#EA5C0B;}
	.st3{fill:#F8F7F8;}
	.st4{fill:#4EC1F0;}
	.st5{fill:#E73A80;}
</style>
<g>
	<rect class="st0" width="40.9" height="40.9"/>
	<path class="st1" d="M11.1,27.4c3.8,0.5,8.1,0.9,12,1.4c0-5.3,0-10.5,0-15.7c-0.2,0-0.4,0-0.5,0.1c-2.2,0.5-4.3,1-6.5,1.5
		c-0.6,0.1-0.7,0.4-0.7,0.9c0,3.1,0,6.3,0,9.4c0,0.4-0.1,0.7-0.5,0.9C13.6,26.3,12.4,26.8,11.1,27.4c0,0,0-4.4,0-4.4
		c0-4.1,0-4.5,0-8.6c0-0.8-0.1-0.6,0.6-0.9c3.6-1.3,7.2-2.7,10.8-4c0.4-0.1,0.8-0.1,1.2,0c1.8,0.5,3.6,1.2,5.4,1.7
		c0.4,0.1,0.6,0.3,0.6,0.8c0,5.7,0,11.5,0,17.2c0,0.5-0.1,0.7-0.6,0.8c-1.8,0.5-3.6,1.1-5.5,1.6c-0.3,0.1-0.7,0.1-1,0
		c-3.7-1.3-7.3-2.6-10.9-3.9C11.8,27.6,11.2,27.4,11.1,27.4C11.1,27.4,11.1,27.4,11.1,27.4z"/>
</g>
</svg>
