<svg id="Layer_1" data-name="Layer 1" xmlns="http://www.w3.org/2000/svg" viewBox="0 0 40.93 40.93"><defs><style>.cls-1{fill:#5b4085;}.cls-2{fill:#fff;}.cls-3{fill:none;}</style></defs><title>skill</title><rect class="cls-1" width="40.93" height="40.93"/><path class="cls-2" d="M14,29.24V12.32h8.1a6.6,6.6,0,0,1,3.2.68,3.52,3.52,0,0,1,1.93,3c.16,2-.46,3.06-2.36,4.16.25.09.49.15.72.24a3.82,3.82,0,0,1,2.36,3.29,4.54,4.54,0,0,1-1,3.78,5.16,5.16,0,0,1-3.05,1.59,11.21,11.21,0,0,1-2,.2c-2.55,0-5.09,0-7.64,0Zm3-2.45h5.15q.31,0,.63,0A2.28,2.28,0,0,0,24.87,25a4.69,4.69,0,0,0,.06-1.4,2.13,2.13,0,0,0-1.73-1.9,5.55,5.55,0,0,0-1.15-.13c-1.58,0-3.16,0-4.73,0H17Zm0-12v4.61c1.71,0,3.39,0,5.07,0A2.66,2.66,0,0,0,23.27,19a2.58,2.58,0,0,0,.46-3.55,1.22,1.22,0,0,0-.54-.37,6.22,6.22,0,0,0-1.47-.26c-1.47,0-2.94,0-4.41,0Z"/><rect class="cls-3" x="7.59" y="6.82" width="26.59" height="27.7"/></svg>