<?xml version="1.0" encoding="utf-8"?>
<!-- Generator: Adobe Illustrator 23.0.1, SVG Export Plug-In . SVG Version: 6.00 Build 0)  -->
<svg version="1.1" id="Layer_1" xmlns="http://www.w3.org/2000/svg" xmlns:xlink="http://www.w3.org/1999/xlink" x="0px" y="0px"
	 viewBox="0 0 40.9 40.9" style="enable-background:new 0 0 40.9 40.9;" xml:space="preserve">
<style type="text/css">
	.st0{fill:#EC4000;}
	.st1{fill:#FFFFFF;}
	.st2{fill:#EA5C0B;}
	.st3{fill:#F8F7F8;}
	.st4{fill:#4EC1F0;}
	.st5{fill:#E73A80;}
</style>
<g>
	<rect class="st2" width="40.9" height="40.9"/>
	<path class="st3" d="M15.1,25.4l-1,4.1h-3.6L15,13h4.6l4.5,16.5h-3.7l-1.1-4.1H15.1z M18.8,22.7l-0.9-3.5c-0.2-1-0.5-2.3-0.7-3.3
		h-0.1c-0.2,1-0.5,2.4-0.7,3.3l-0.9,3.5H18.8z M29.6,14.2c0,1-0.7,1.8-1.9,1.8c-1.1,0-1.8-0.8-1.8-1.8c0-1.1,0.8-1.8,1.9-1.8
		C28.8,12.4,29.5,13.1,29.6,14.2 M25.9,17.5h3.6v12h-3.6V17.5z"/>
</g>
</svg>
