<svg id="Layer_1" data-name="Layer 1" xmlns="http://www.w3.org/2000/svg" viewBox="0 0 40.93 40.93"><defs><style>.cls-1{fill:#d56ea3;}.cls-2{fill:#fdfafc;}.cls-3{fill:none;}</style></defs><title>skill</title><rect class="cls-1" width="40.93" height="40.93"/><path class="cls-2" d="M19.51,21.38a.84.84,0,0,1,.5-.12c.39.1.51.29.41.68-.23.85-.47,1.69-.65,2.55a2,2,0,0,0,0,1A1,1,0,0,0,20,25c.86-1.76,1.63-3.55,2.4-5.35a3.69,3.69,0,0,0,.21-.74.34.34,0,0,1,.23-.27,2.46,2.46,0,0,1,1.26-.09c.29.07.35.2.25.47a3.83,3.83,0,0,0-.22,2.09,3.33,3.33,0,0,0,.29.82c.07.16.13.15.21,0,.29-.49.57-1,.85-1.48a7.53,7.53,0,0,0,.95-2.33.47.47,0,0,1,.43-.39,2.75,2.75,0,0,1,1.07,0c.29.06.37.19.27.48s-.15.45-.2.67a3.21,3.21,0,0,0,.34,2.37c.22.4.21.4.63.24a5.5,5.5,0,0,1,4-.1,3.1,3.1,0,0,1,2.13,2.42A1.93,1.93,0,0,1,34,25.91l-.26.07a.13.13,0,0,1-.17-.07c0-.08,0-.13.08-.17s.21-.14.3-.22a1.54,1.54,0,0,0,.1-2.38,3.14,3.14,0,0,0-1.6-.93,5.83,5.83,0,0,0-3.31.09c-.14.05-.21.09-.15.28a2,2,0,0,1-.85,2.57,4,4,0,0,1-1.42.66.71.71,0,0,1-.91-.87,2.91,2.91,0,0,1,.43-1.17,4.59,4.59,0,0,1,1-1.2.28.28,0,0,0,.08-.42,5.69,5.69,0,0,1-.62-1.82.16.16,0,0,0-.08-.14c-.26.5-.52,1-.82,1.49s-.47.76-.72,1.14a.38.38,0,0,0-.05.41,2.38,2.38,0,0,1,0,2.1,2.64,2.64,0,0,1-1.39,1.14,3.88,3.88,0,0,1-1.26.31h0c-.28,0-.58,0-.74-.27s0-.53.17-.75c.48-.6,1-1.18,1.46-1.78s.42-.53.11-1.13a7.31,7.31,0,0,1-.56-1.79c-.1,0-.1.11-.12.17a39.4,39.4,0,0,1-2.41,5,2.28,2.28,0,0,1-.69.79.66.66,0,0,1-1.09-.35,3.52,3.52,0,0,1-.11-1.48.18.18,0,0,0,0-.11c-.13.3-.26.61-.4.91a7.76,7.76,0,0,1-.59,1.1,1,1,0,0,1-1.77,0,4.43,4.43,0,0,1-.57-3,12.94,12.94,0,0,1,.3-1.36c-.45.21-.83.45-1.21.67s-.33.2-.21.58a4.76,4.76,0,0,1-3.81,6.15A3.51,3.51,0,0,1,8.62,30a1.4,1.4,0,0,1-.9-.92,2.82,2.82,0,0,1,.55-2.9A9.56,9.56,0,0,1,11,24.1c.32-.19.64-.36,1-.53.18-.09.22-.15,0-.29-.61-.46-1.24-.88-1.86-1.32a12.48,12.48,0,0,1-2.65-2.32,5.46,5.46,0,0,1-.68-1.14,2.79,2.79,0,0,1,.07-2.28,7.83,7.83,0,0,1,2-2.81,19.37,19.37,0,0,1,7-4,10.59,10.59,0,0,1,4.21-.61,5.86,5.86,0,0,1,3.35,1.1,2.86,2.86,0,0,1,1.11,2.65,6.27,6.27,0,0,1-3,4.6,8.59,8.59,0,0,1-3.73,1.36,7,7,0,0,1-2.78,0,3.12,3.12,0,0,1-1.56-.92,1.47,1.47,0,0,1-.35-.65c0-.09,0-.18.08-.22a.19.19,0,0,1,.21.05,3.56,3.56,0,0,0,3.3.85A8.65,8.65,0,0,0,21,15.85a5.34,5.34,0,0,0,2-2.65A2.24,2.24,0,0,0,23,12a1.69,1.69,0,0,0-1.15-1.13A6.05,6.05,0,0,0,19,10.57a16.32,16.32,0,0,0-8.08,3.63A5.69,5.69,0,0,0,9,16.58a2.8,2.8,0,0,0,.51,3,14,14,0,0,0,2.2,1.93,10.43,10.43,0,0,1,1.38,1.19c.12.13.21.13.37.05.81-.46,1.64-.91,2.46-1.34a2.05,2.05,0,0,0,.5-.52,4.71,4.71,0,0,1,1.49-1.13,1.63,1.63,0,0,1,.52-.15.92.92,0,0,1,1.12,1A3.55,3.55,0,0,1,19.51,21.38ZM13,25a3.36,3.36,0,0,0-.1-.8c0-.18-.09-.18-.22-.1-.45.27-.89.54-1.31.85a6.7,6.7,0,0,0-1.5,1.31,2.45,2.45,0,0,0-.59,1.64.6.6,0,0,0,.63.63,1.75,1.75,0,0,0,.4,0A3.65,3.65,0,0,0,13,25Zm3.44-.43a3.21,3.21,0,0,0,.07.82c.05.16.07.36.26.39s.24-.15.33-.28l.1-.17c.24-.46.42-1,.62-1.45a16.27,16.27,0,0,0,.91-2.82c.06-.31-.08-.43-.38-.33a1.59,1.59,0,0,0-.66.48A5.44,5.44,0,0,0,16.48,24.59Zm11.46-1.15a2.45,2.45,0,0,0,0-.38c0-.06,0-.14-.12-.06a3.28,3.28,0,0,0-1,1.76c0,.14.05.17.18.12A1.51,1.51,0,0,0,27.94,23.44Zm-3.87.82c-.43.5-.85,1-1.32,1.49,0,0-.05.07,0,.1s.1,0,.14,0a2.75,2.75,0,0,0,.79-.6A1.34,1.34,0,0,0,24.07,24.26Z"/><rect class="cls-3" x="3.81" y="2.95" width="34.14" height="30.5"/></svg>