<?xml version="1.0" encoding="utf-8"?>
<!-- Generator: Adobe Illustrator 23.0.1, SVG Export Plug-In . SVG Version: 6.00 Build 0)  -->
<svg version="1.1" id="Layer_1" xmlns="http://www.w3.org/2000/svg" xmlns:xlink="http://www.w3.org/1999/xlink" x="0px" y="0px"
	 viewBox="0 0 40.9 40.9" style="enable-background:new 0 0 40.9 40.9;" xml:space="preserve">
<style type="text/css">
	.st0{fill:#EC4000;}
	.st1{fill:#FFFFFF;}
	.st2{fill:#EA5C0B;}
	.st3{fill:#F8F7F8;}
	.st4{fill:#4EC1F0;}
	.st5{fill:#E73A80;}
</style>
<g>
	<rect class="st5" width="40.9" height="40.9"/>
	<rect x="12.4" y="12.7" class="st3" width="3.1" height="16.7"/>
	<path class="st3" d="M26.2,13l0,4.1c0,0-1.4,0-1.9,0c-1,0.1-2,0.5-2,0.5c-3.9,1.8-4,5.2-4,5.2s-0.6,5.1,3.5,6.5
		c4,1.4,7.4-0.6,7.4-0.6V13H26.2z M26,27.1c0,0-0.9,0.6-2.5,0c-1.6-0.6-2-2.1-2-2.1s-0.6-1.4,0-3.3c0.2-0.7,0.7-1.2,1.1-1.6
		c0.7-0.5,1.6-0.7,2.4-0.7H26V27.1z"/>
</g>
</svg>
