<svg id="Layer_1" data-name="Layer 1" xmlns="http://www.w3.org/2000/svg" viewBox="0 0 40.93 40.93"><defs><style>.cls-1{fill:#f35045;}.cls-2{fill:#fff;}</style></defs><title>skill</title><rect class="cls-1" width="40.93" height="40.93"/><path class="cls-2" d="M12.72,6.62l2.19,1.24c1,.59,2.05,1.19,3.08,1.77a.57.57,0,0,1,.3.54v11l.12-.07,4.14-2.38a.17.17,0,0,0,.09-.17V13.08a.51.51,0,0,1,.28-.48L28,9.67a.52.52,0,0,1,.56,0l5.08,2.93a.49.49,0,0,1,.28.47c0,1.94,0,3.87,0,5.81a.5.5,0,0,1-.29.48l-4.82,2.77a.2.2,0,0,0-.11.19c0,1.83,0,3.66,0,5.49a.54.54,0,0,1-.3.51L18.18,34.21a.56.56,0,0,1-.63,0L7.27,28.29A.48.48,0,0,1,7,27.84V10.11a.48.48,0,0,1,.26-.45l5.14-2.95.18-.09Zm4.71,26.53V33c0-1.58,0-3.15,0-4.72a.22.22,0,0,0-.14-.22l-4.74-2.68a.59.59,0,0,1-.34-.58q0-5.68,0-11.37a.21.21,0,0,0-.12-.21L8,10.87l-.12-.07V11q0,8.26,0,16.53a.23.23,0,0,0,.13.23q4.23,2.41,8.45,4.86Zm.86,0,.13-.07,9.33-5.37a.17.17,0,0,0,.11-.18c0-1.57,0-3.13,0-4.7,0,0,0-.08,0-.14l-.12.07-9.34,5.32a.19.19,0,0,0-.1.2v4.87Zm-5.21-8.94.12-.07,4.13-2.37a.2.2,0,0,0,.11-.2V10.94s0-.08,0-.14a.45.45,0,0,1-.12.06l-4.12,2.38a.18.18,0,0,0-.11.19V24.21Zm.44.73.1.07,4.15,2.35a.19.19,0,0,0,.19,0q4.66-2.68,9.35-5.35l.1-.06-.11-.07-4.09-2.36a.24.24,0,0,0-.28,0l-8.63,5ZM8.31,10.06a.6.6,0,0,0,.11.06l4.13,2.39a.18.18,0,0,0,.2,0l4.14-2.38.11-.08a.45.45,0,0,0-.12-.06L12.74,7.6a.15.15,0,0,0-.18,0L8.41,10ZM32.63,13l-.12-.08-4.14-2.38a.17.17,0,0,0-.19,0l-4.12,2.38-.12.07.09.07,4.15,2.38a.16.16,0,0,0,.2,0l3.41-2Zm-4.78,8.2c0-.06,0-.09,0-.13V16.35a.15.15,0,0,0-.09-.15l-4.16-2.39-.12-.06v4.83a.19.19,0,0,0,.12.19L27.47,21Zm.86,0,.12-.07L33,18.77a.18.18,0,0,0,.1-.18V13.88a.72.72,0,0,0,0-.13L33,13.8,28.8,16.19a.19.19,0,0,0-.09.18v4.84Z"/></svg>