<svg id="Layer_1" data-name="Layer 1" xmlns="http://www.w3.org/2000/svg" viewBox="0 0 40.81 40.81"><defs><style>.cls-1{fill:#262626;}.cls-2,.cls-3{fill:#fff;}.cls-2{fill-rule:evenodd;}</style></defs><title>skill</title><g id="Github"><rect id="back" class="cls-1" width="40.81" height="40.81"/><g id="Github-2"><path class="cls-2" d="M20.41,9.26a11.43,11.43,0,0,0-3.62,22.27c.57.11.78-.25.78-.55s0-1.17,0-2.13c-3.18.7-3.85-1.34-3.85-1.34a3.07,3.07,0,0,0-1.27-1.68c-1-.71.08-.69.08-.69a2.39,2.39,0,0,1,1.75,1.18,2.45,2.45,0,0,0,3.33.95,2.44,2.44,0,0,1,.72-1.53c-2.54-.29-5.21-1.27-5.21-5.65A4.49,4.49,0,0,1,14.29,17a4.09,4.09,0,0,1,.11-3s1-.31,3.15,1.17a10.88,10.88,0,0,1,5.72,0C25.45,13.69,26.41,14,26.41,14a4.09,4.09,0,0,1,.11,3,4.49,4.49,0,0,1,1.18,3.07c0,4.39-2.68,5.36-5.22,5.64a2.73,2.73,0,0,1,.77,2.12c0,1.53,0,2.76,0,3.13s.21.66.79.55A11.43,11.43,0,0,0,20.41,9.26Z"/><path class="cls-3" d="M13.31,25.67a.16.16,0,0,1-.2,0c-.08,0-.13-.11-.1-.17s.11-.07.2,0,.13.12.1.18Z"/><path class="cls-3" d="M13.77,26.18c0,.05-.16,0-.23-.05a.18.18,0,0,1,0-.24c.06-.05.16,0,.24.06s.09.18,0,.23Z"/><path class="cls-3" d="M14.22,26.84c-.07.05-.18,0-.25-.1a.2.2,0,0,1,0-.27c.07,0,.18,0,.25.1a.2.2,0,0,1,0,.27Z"/><path class="cls-3" d="M14.84,27.48c-.07.07-.2.05-.3-.05a.23.23,0,0,1-.06-.29c.06-.07.2-.05.29.05A.22.22,0,0,1,14.84,27.48Z"/><path class="cls-3" d="M15.69,27.85c0,.09-.16.13-.29.09s-.21-.14-.18-.23.15-.14.28-.1.22.15.19.24Z"/><path class="cls-3" d="M16.62,27.92c0,.09-.1.17-.23.17s-.25-.07-.25-.17.1-.17.24-.17.25.07.25.17Z"/><path class="cls-3" d="M17.5,27.77c0,.09-.08.18-.22.21S17,28,17,27.86s.08-.19.21-.22.26,0,.28.13Z"/></g></g></svg>