<?xml version="1.0" encoding="utf-8"?>
<!-- Generator: Adobe Illustrator 22.1.0, SVG Export Plug-In . SVG Version: 6.00 Build 0)  -->
<svg version="1.1" xmlns="http://www.w3.org/2000/svg" xmlns:xlink="http://www.w3.org/1999/xlink" x="0px" y="0px"
	 viewBox="0 0 334.6 650.8" style="enable-background:new 0 0 334.6 650.8;" xml:space="preserve">
<style type="text/css">
	.st0{fill:#ED1C24;}
	.st1{fill:#F15A24;}
	.st2{fill:#29ABE2;}
	.st3{fill:#C1272D;}
	.st4{fill:#F0FF64;}
	.st5{fill:#F7931E;}
	.st6{fill:#FCEE21;}
	.st7{fill:#FBB03B;}
</style>
<g id="Calque_1">
	<g>
		<rect x="80.6" y="138.7" class="st0" width="187" height="382"/>
		<g>
		</g>
		<path class="st1" d="M290,62.5V111c0,6.6-5.4,12-12,12H70.3c-6.6,0-12-5.4-12-12V64.2l22.4-13.5l0,0l24.4,13.9h0l23.3-14.1
			l23.5,13.9l23.3-14.1l23.5,13.9L222,50.1L245.5,64l23.3-14.1L290,62.5z"/>
		<g>
			<g>
				<path class="st0" d="M290,62.5V111c0,6.6-5.4,12-12,12H70.3c-6.6,0-12-5.4-12-12V64.2l10.6-6.4l11.8-7.1l0,0l24.4,13.9h0
					l23.3-14.1l23.5,13.9l0.1,0l23.3-14.1l0,0l23.4,13.9l0.1,0l23.3-14L245.5,64l23.3-14.1L290,62.5z"/>
				<path class="st1" d="M80.7,50.5V123H70.3c-6.6,0-12-5.4-12-12V64.4l10.6-6.6L80.7,50.5L80.7,50.5z"/>
				<polygon class="st1" points="128.4,50.5 127.5,123 105.1,123 105.1,64.6 127.5,50.7 				"/>
				<polygon class="st1" points="175.3,50.2 175.3,50.4 174.3,123 151.9,123 151.9,64.3 				"/>
				<polygon class="st1" points="222,50.1 221.2,123 198.8,123 198.8,64 				"/>
				<polygon class="st1" points="268.8,49.9 268.1,123 245.7,123 245.5,64 				"/>
			</g>
			<path class="st3" d="M290,111v15.7c0,6.6-5.4,12-12,12H70.3c-6.6,0-12-5.4-12-12V111c0,6.6,5.4,12,12,12H278
				C284.6,123,290,117.6,290,111z"/>
		</g>
		<g>
			<g>
				<polygon class="st0" points="106.2,523.6 106.2,581.9 106.2,581.9 81.8,595.8 81.8,523.6 				"/>
				<polygon class="st0" points="70,588.7 59.4,582.3 59.4,582.1 				"/>
				<polygon class="st0" points="246.8,523.6 246.6,582.5 223.1,596.4 199.9,582.4 199.8,582.3 176.4,596.2 176.4,596.2 
					153.1,582.2 153,582.1 129.6,596 106.2,581.9 106.2,523.6 				"/>
				<path class="st0" d="M291.2,535.6v48.5l-21.2,12.6l-0.7-73.1h9.9C285.7,523.6,291.2,529,291.2,535.6z"/>
				<path class="st1" d="M81.8,523.6v72.3l0,0L70,588.7l-10.6-6.6v-46.6c0-6.6,5.4-12,12-12H81.8z"/>
				<polygon class="st1" points="81.8,595.8 81.8,596 81.8,596 70,588.7 81.8,595.8 				"/>
				<polygon class="st1" points="129.6,596 128.6,595.8 106.2,581.9 106.2,523.6 128.6,523.6 				"/>
				<polygon class="st1" points="176.4,596.2 176.4,596.3 153.1,582.2 153.1,523.6 175.5,523.6 				"/>
				<polygon class="st1" points="223.1,596.4 199.9,582.5 199.9,523.6 222.3,523.6 				"/>
				<polygon class="st1" points="269.9,596.6 246.6,582.5 246.8,523.6 269.3,523.6 				"/>
			</g>
			<path class="st3" d="M291.2,519.9v15.7c0-6.6-5.4-12-12-12H71.4c-6.6,0-12,5.4-12,12v-15.7c0-6.6,5.4-12,12-12h207.8
				C285.7,507.9,291.2,513.3,291.2,519.9z"/>
		</g>
		<rect x="80.6" y="138.7" class="st1" width="15.7" height="369.2"/>
		<rect x="252" y="138.7" class="st1" width="15.7" height="369.2"/>
		<path class="st4" d="M201.9,249.1c-0.1-1.3-0.8-2.6-1.9-3.3l-33.3-22.9c-3.1-2.1-7.2,0.4-6.8,4.1l7.7,65.8l-20.9-14.4
			c-2.2-1.5-5,0.6-4.2,3.1l42.4,140.8c0.9,3.1,5.6,2.3,5.4-1l-5.6-93.7l15.4,12.6c2.9,2.4,7.3,0.2,7.1-3.6L201.9,249.1z"/>
	</g>
</g>
<g id="Calque_2">
</g>
</svg>
