<?xml version="1.0" encoding="utf-8"?>
<!-- Generator: Adobe Illustrator 22.1.0, SVG Export Plug-In . SVG Version: 6.00 Build 0)  -->
<svg version="1.1" xmlns="http://www.w3.org/2000/svg" xmlns:xlink="http://www.w3.org/1999/xlink" x="0px" y="0px"
	 viewBox="0 0 722.8 426" style="enable-background:new 0 0 722.8 426;" xml:space="preserve">
<style type="text/css">
	.st0{fill:#ED1C24;}
	.st1{fill:#F15A24;}
	.st2{fill:#29ABE2;}
	.st3{fill:#C1272D;}
	.st4{fill:#F0FF64;}
	.st5{fill:#F7931E;}
	.st6{fill:#FCEE21;}
	.st7{fill:#FBB03B;}
</style>
<g id="Calque_1">
	<path class="st5" d="M652.6,258.4c-19.3,2.1-48,27.9-85.9,32.1c-144.8,15.8-385.7,19.1-394,18.7c-12-0.7-38.4-4-38.4-4l-73.6-52.8
		c1.8-5.6,4.4-11.4,7.7-17.4c3.8-6.9,9.6-12.5,16.4-16.1c3.9-2,8.2-3.4,12.7-4.1c5.2-0.7,11.2-1.6,17.6-2.7
		c7.5-1.2,15.6-2.6,23.3-4.1c12.5-2.5,24.1-5.3,31.7-8.2c24-9.3,243.3-110.7,243.3-110.7s13.3-16.7,44,18.7
		c30.7,35.3,38,42,55.3,45.3c17.3,3.3,28.7,0.7,33.3-23.3s-6-32.6,8-40.7s44,14,44,14s5.1,5.5,12.5,18.5
		c5.1,8.9,11.2,21.4,17.4,38.1C636.8,183.5,645.9,215.8,652.6,258.4z"/>
	<path class="st1" d="M655.7,334.2c-2.6,4.4-5.8,8.7-9.7,12.6c-21.3,21.8-110.6,19.3-152.3,16.9c-13.8-0.8-26.7-6.7-36.3-16.6H429
		c-7.4,0-14.8,1.2-21.8,3.5c-28.6,9.5-122.5,33.1-287.9,2.5c0,0-84-30.8-56.8-105.9c0,0,26,18.8,93.5,36.6
		c12.7,3.3,18,16.5,29.7,19.3c24.1,5.9,229-10.5,373.6-26.2c1.6-0.2,3.1-0.3,4.7-0.5c37.2-4,68.2-15.5,87.6-17.9
		c0.4,0,0.7-0.1,1-0.1c0,0.2,0.1,0.5,0.1,0.7C665.9,270.7,672.2,306.2,655.7,334.2z"/>
	<path class="st6" d="M610.5,121.6c-24.8,28.9-34.2,82.8-85.8,82.8c-26.7,0-76.2-63.3-76.2-63.3s-23-38-82.5,0s-183,96.7-223,70.7
		c-1.6-1.4-3.1-2.6-4.7-3.8c12.5-2.5,24.1-5.3,31.7-8.2c24-9.3,243.3-110.7,243.3-110.7s13.3-16.7,44,18.7
		c30.7,35.3,38,42,55.3,45.3c17.3,3.3,28.7,0.7,33.3-23.3s-6-32.6,8-40.7s44,14,44,14S603.1,108.7,610.5,121.6z"/>
	<g>
		<g>
			<path d="M186.6,190.1c2.6,5.3,5.2,10.7,7.8,16c2.4,4.9,9.3,6.2,13.7,3.6c5-2.9,5.9-8.8,3.6-13.7c-2.6-5.3-5.2-10.7-7.8-16
				c-2.4-4.9-9.3-6.2-13.7-3.6C185.2,179.3,184.3,185.2,186.6,190.1L186.6,190.1z"/>
		</g>
	</g>
	<g>
		<g>
			<path d="M219.6,174c2.6,5.3,5.2,10.7,7.8,16c2.4,4.9,9.3,6.2,13.7,3.6c5-2.9,5.9-8.8,3.6-13.7c-2.6-5.3-5.2-10.7-7.8-16
				c-2.4-4.9-9.3-6.2-13.7-3.6C218.3,163.3,217.3,169.2,219.6,174L219.6,174z"/>
		</g>
	</g>
	<g>
		<g>
			<path d="M254.1,156.8c2.6,5.3,5.2,10.7,7.8,16c2.4,4.9,9.3,6.2,13.7,3.6c5-2.9,5.9-8.8,3.6-13.7c-2.6-5.3-5.2-10.7-7.8-16
				c-2.4-4.9-9.3-6.2-13.7-3.6C252.8,146,251.8,151.9,254.1,156.8L254.1,156.8z"/>
		</g>
	</g>
	<g>
		<g>
			<path d="M289.7,140.8c2.6,5.3,5.2,10.7,7.8,16c2.4,4.9,9.3,6.2,13.7,3.6c5-2.9,5.9-8.8,3.6-13.7c-2.6-5.3-5.2-10.7-7.8-16
				c-2.4-4.9-9.3-6.2-13.7-3.6C288.3,130,287.3,135.9,289.7,140.8L289.7,140.8z"/>
		</g>
	</g>
	<g>
		<g>
			<path d="M320.6,124.8c2.6,5.3,5.2,10.7,7.8,16c2.4,4.9,9.3,6.2,13.7,3.6c5-2.9,5.9-8.8,3.6-13.7c-2.6-5.3-5.2-10.7-7.8-16
				c-2.4-4.9-9.3-6.2-13.7-3.6C319.2,114,318.2,119.9,320.6,124.8L320.6,124.8z"/>
		</g>
	</g>
	<path class="st7" d="M448.5,141.2c0,0-133,97-218,109.5c-67.4,9.9-124.8-19.2-145.7-31.8c3.9-2,8.2-3.4,12.7-4.1
		c5.2-0.7,11.2-1.6,17.6-2.7c2.3-0.4,4.7-0.8,7.1-1.2c1.5-0.3,3-0.5,4.5-0.8c3.9-0.7,7.9-1.4,11.7-2.2c1.5,1.2,3.1,2.5,4.7,3.8
		c40,26,163.5-32.7,223-70.7S448.5,141.2,448.5,141.2z"/>
	<path class="st6" d="M652.6,258.4c-0.3,0-0.7,0.1-1,0.1c-19.4,2.4-50.5,13.9-87.6,17.9c-1.5,0.2-3.1,0.3-4.7,0.5
		c9.1-24.4,31.8-71.4,68.7-117.3C636.8,183.5,645.9,215.8,652.6,258.4z"/>
</g>
<g id="Calque_2">
</g>
</svg>
