<?xml version="1.0" encoding="utf-8"?>
<!-- Generator: Adobe Illustrator 22.1.0, SVG Export Plug-In . SVG Version: 6.00 Build 0)  -->
<svg version="1.1" xmlns="http://www.w3.org/2000/svg" xmlns:xlink="http://www.w3.org/1999/xlink" x="0px" y="0px"
	 viewBox="0 0 339 590.4" style="enable-background:new 0 0 339 590.4;" xml:space="preserve">
<style type="text/css">
	.st0{fill:#ED1C24;}
	.st1{fill:#F15A24;}
	.st2{fill:#29ABE2;}
	.st3{fill:#C1272D;}
	.st4{fill:#F0FF64;}
	.st5{fill:#F7931E;}
	.st6{fill:#FCEE21;}
	.st7{fill:#FBB03B;}
</style>
<g id="Calque_1">
	<g>
		<rect x="87.2" y="168.9" class="st0" width="169" height="41.7"/>
		<path class="st0" d="M240.9,78.3H103.2c-17.1,0-31,13.9-31,31v0c0,17.1-2.1,31,15,31h170.7c17.1,0,14-13.9,14-31v0
			C271.9,92.1,258,78.3,240.9,78.3z"/>
		<path class="st1" d="M274.7,177.3h-205c-6.6,0-12-5.4-12-12v-20c0-6.6,5.4-12,12-12h205c6.6,0,12,5.4,12,12v20
			C286.7,171.9,281.3,177.3,274.7,177.3z"/>
		<path class="st1" d="M244.2,578.9H97.6c-25.5,0-46.3-20.8-46.3-46.3V251.3c0-25.5,20.9-46.3,46.3-46.3h146.7
			c25.5,0,46.3,20.9,46.3,46.3v281.3C290.6,558.1,269.7,578.9,244.2,578.9z"/>
		<rect x="153.2" y="56.3" class="st0" width="32.7" height="26.7"/>
		<path class="st0" d="M196.6,59.6h-52c-8.1,0-6.7-6.6-6.7-14.7v0c0-8.1,6.6-14.7,14.7-14.7h36c8.1,0,14.7,6.6,14.7,14.7v0
			C203.2,53,204.6,59.6,196.6,59.6z"/>
		<path class="st2" d="M147.5,325c14.8,9,25.6,13.2,42.8,15.3c19.8,2.4,31.7-2.1,53.8-8.7l0,0c20.5,0,25.2,16.7,25.2,37.2v144.9
			c0,20.5-16.7,37.2-37.2,37.2H109.4c-20.5,0-37.2-16.7-37.2-37.2V368.8c0-7,2-26,5.4-33.5c3.2-6.9,13.7-24,25.5-25.1
			C129.2,307.8,138.9,319.7,147.5,325z"/>
	</g>
</g>
<g id="Calque_2">
</g>
</svg>
