<?xml version="1.0" encoding="utf-8"?>
<!-- Generator: Adobe Illustrator 15.0.0, SVG Export Plug-In . SVG Version: 6.00 Build 0)  -->
<!DOCTYPE svg PUBLIC "-//W3C//DTD SVG 1.1//EN" "http://www.w3.org/Graphics/SVG/1.1/DTD/svg11.dtd">
<svg version="1.1" xmlns="http://www.w3.org/2000/svg" xmlns:xlink="http://www.w3.org/1999/xlink" x="0px" y="0px" width="1920px"
	 height="1080px" viewBox="0 0 1920 1080" enable-background="new 0 0 1920 1080" xml:space="preserve">
<symbol  id="_x34_" viewBox="-50 -11.503 100 23.007">
	<g>
		<g>
			<path d="M-48,8.5c6.521-0.403,8.764-11.333,11.942-15.795c2.748-3.857,7.928-5.743,11.99-2.595
				c5.145,3.985,6.151,11.104,10.093,16.029C-7.354,14.41-1.9,0.23,0.427-4.221c2.389-4.57,6.365-8.602,11.898-6.786
				c5.402,1.773,7.554,9.241,9.893,13.714c1.587,3.037,3.874,6.395,7.78,5.647c3.46-0.663,5.331-5.46,6.682-8.23
				C39.121-4.878,41.64-11.106,48-11.5c1.933-0.12,1.921,2.881,0,3C41.478-8.097,39.235,2.833,36.056,7.295
				c-2.748,3.857-7.929,5.743-11.992,2.595C18.918,5.905,17.911-1.214,13.968-6.139C7.347-14.41,1.894-0.231-0.434,4.221
				c-2.389,4.57-6.365,8.602-11.898,6.786c-5.401-1.773-7.553-9.241-9.891-13.714c-1.587-3.036-3.873-6.395-7.778-5.647
				c-3.459,0.663-5.33,5.461-6.68,8.23C-39.121,4.878-41.64,11.106-48,11.5C-49.933,11.62-49.921,8.619-48,8.5L-48,8.5z"/>
		</g>
	</g>
	<polygon display="none" fill="none" points="-50,11 50,11 50,-11 -50,-11 	"/>
</symbol>
<symbol  id="_x37_" viewBox="-75 -25.306 150 50.612">
	<g>
		<g>
			<path d="M-73.524-5.295c9.738-6.6,19.477-13.2,29.215-19.8c0.41-0.277,1.105-0.285,1.514,0
				c9.637,6.727,19.274,13.453,28.911,20.179c-0.988-0.69-2.043,0.4-0.445-0.683c1.125-0.762,2.249-1.524,3.373-2.286
				c3.261-2.21,6.522-4.42,9.783-6.63c5.007-3.394,10.014-6.787,15.021-10.181c0.41-0.278,1.105-0.285,1.514,0
				c9.638,6.727,19.276,13.453,28.914,20.179c-0.988-0.69-2.043,0.4-0.445-0.683c1.124-0.762,2.249-1.523,3.373-2.286
				c3.262-2.21,6.523-4.42,9.785-6.63c5.008-3.393,10.016-6.787,15.023-10.18c1.606-1.088,3.105,1.512,1.514,2.591
				c-9.74,6.6-19.479,13.2-29.219,19.8c-0.41,0.277-1.105,0.285-1.514,0c-9.638-6.727-19.276-13.453-28.914-20.179
				c0.988,0.69,2.043-0.4,0.445,0.683c-1.125,0.762-2.249,1.524-3.373,2.286c-3.261,2.21-6.522,4.42-9.783,6.63
				C-3.84-9.091-8.847-5.698-13.854-2.304c-0.41,0.277-1.105,0.285-1.514,0c-9.637-6.727-19.274-13.453-28.911-20.179
				c0.988,0.69,2.043-0.4,0.445,0.683c-1.124,0.762-2.249,1.523-3.373,2.286c-3.261,2.21-6.522,4.42-9.783,6.63
				c-5.007,3.393-10.014,6.787-15.021,10.18C-73.617-1.616-75.116-4.217-73.524-5.295L-73.524-5.295z"/>
		</g>
	</g>
	<g>
		<g>
			<path d="M-73.524,7.705c9.738-6.6,19.477-13.2,29.215-19.8c0.41-0.277,1.105-0.285,1.514,0
				c9.637,6.727,19.274,13.453,28.911,20.179c-0.988-0.69-2.043,0.4-0.445-0.683c1.125-0.762,2.249-1.524,3.373-2.286
				c3.261-2.21,6.522-4.42,9.783-6.63C3.833-4.908,8.84-8.302,13.847-11.695c0.41-0.278,1.105-0.285,1.514,0
				C24.999-4.969,34.637,1.757,44.275,8.483c-0.988-0.69-2.043,0.4-0.445-0.683c1.124-0.762,2.249-1.523,3.373-2.286
				c3.262-2.21,6.523-4.42,9.785-6.63c5.008-3.393,10.016-6.787,15.023-10.18c1.606-1.088,3.105,1.512,1.514,2.591
				c-9.74,6.6-19.479,13.2-29.219,19.8c-0.41,0.277-1.105,0.285-1.514,0C33.153,4.369,23.516-2.357,13.877-9.083
				c0.988,0.69,2.043-0.4,0.445,0.683c-1.125,0.762-2.249,1.524-3.373,2.286c-3.261,2.21-6.522,4.42-9.783,6.63
				C-3.84,3.909-8.847,7.302-13.854,10.696c-0.41,0.277-1.105,0.285-1.514,0C-25.005,3.969-34.642-2.757-44.279-9.483
				c0.988,0.69,2.043-0.4,0.445,0.683c-1.124,0.762-2.249,1.523-3.373,2.286c-3.261,2.21-6.522,4.42-9.783,6.63
				c-5.007,3.393-10.014,6.787-15.021,10.18C-73.617,11.384-75.116,8.783-73.524,7.705L-73.524,7.705z"/>
		</g>
	</g>
	<g>
		<g>
			<path d="M-73.524,21.705c9.738-6.6,19.477-13.2,29.215-19.8c0.41-0.277,1.105-0.285,1.514,0
				c9.637,6.727,19.274,13.453,28.911,20.179c-0.988-0.69-2.043,0.4-0.445-0.683c1.125-0.762,2.249-1.524,3.373-2.286
				c3.261-2.21,6.522-4.42,9.783-6.63C3.833,9.092,8.84,5.698,13.847,2.305c0.41-0.278,1.105-0.285,1.514,0
				c9.638,6.727,19.276,13.453,28.914,20.179c-0.988-0.69-2.043,0.4-0.445-0.683c1.124-0.762,2.249-1.523,3.373-2.286
				c3.262-2.21,6.523-4.42,9.785-6.63c5.008-3.393,10.016-6.787,15.023-10.18c1.606-1.088,3.105,1.512,1.514,2.591
				c-9.74,6.6-19.479,13.2-29.219,19.8c-0.41,0.277-1.105,0.285-1.514,0c-9.638-6.727-19.276-13.453-28.914-20.179
				c0.988,0.69,2.043-0.4,0.445,0.683c-1.125,0.762-2.249,1.524-3.373,2.286c-3.261,2.21-6.522,4.42-9.783,6.63
				c-5.007,3.394-10.014,6.787-15.021,10.181c-0.41,0.277-1.105,0.285-1.514,0c-9.637-6.727-19.274-13.453-28.911-20.179
				c0.988,0.69,2.043-0.4,0.445,0.683c-1.124,0.762-2.249,1.523-3.373,2.286c-3.261,2.21-6.522,4.42-9.783,6.63
				c-5.007,3.393-10.014,6.787-15.021,10.18C-73.617,25.384-75.116,22.783-73.524,21.705L-73.524,21.705z"/>
		</g>
	</g>
	<polygon display="none" fill="none" points="-75,25 75,25 75,-25 -75,-25 	"/>
</symbol>
<symbol  id="Nouveau_symbole_2_" viewBox="-37 -30.889 74 61.777">
	<polygon points="36.269,-30.889 -36.269,-30.758 -1.197,30.889 	"/>
	<polygon display="none" fill="none" points="-37,30 37,30 37,-30 -37,-30 	"/>
</symbol>
<g id="Calque_10">
	<rect x="-0.5" y="0.5" fill="#FFFFFF" stroke="#FFFFFF" stroke-miterlimit="10" width="1920" height="1080"/>
</g>
<g id="Calque_1">
	<g id="_x32__1_">
		
			<rect x="1783.831" y="782.321" transform="matrix(0.9494 0.3142 -0.3142 0.9494 346.3264 -528.2034)" fill="#3FA9F5" stroke="#3FA9F5" stroke-width="3" stroke-miterlimit="10" width="56" height="56"/>
		
			<rect x="1790.183" y="794.956" transform="matrix(0.9494 0.3142 -0.3142 0.9494 350.6177 -529.5591)" fill="none" stroke="#000000" stroke-width="3" stroke-miterlimit="10" width="56" height="56.001"/>
	</g>
	<g id="_x36_">
		<polygon fill="#FF7BAC" stroke="#FF7BAC" stroke-miterlimit="10" points="127.312,882.26 40.919,853.67 109.564,791.066 		"/>
		<polygon fill="none" stroke="#000000" stroke-width="3" stroke-miterlimit="10" points="117.797,869.631 31.405,841.041 
			100.05,778.438 		"/>
	</g>
	<g id="_x33_">
		<path fill="#3FA9F5" stroke="#3FA9F5" stroke-width="3" stroke-miterlimit="10" d="M271.286,904.1
			c-4.668,14.106-19.882,21.755-33.99,17.086c-14.106-4.668-21.753-19.882-17.085-33.988c4.669-14.108,19.881-21.756,33.988-17.087
			C268.306,874.779,275.955,889.992,271.286,904.1z"/>
		<path fill="none" stroke="#000000" stroke-width="3" stroke-miterlimit="10" d="M282.344,899.332
			c-4.668,14.106-19.883,21.755-33.991,17.086c-14.106-4.668-21.753-19.882-17.085-33.988c4.668-14.107,19.881-21.755,33.988-17.087
			C279.364,870.012,287.013,885.225,282.344,899.332z"/>
	</g>
	
		<use xlink:href="#_x37_"  width="150" height="50.612" x="-75" y="-25.306" transform="matrix(0.8165 0.2702 0.3142 -0.9494 154.5137 967.6289)" overflow="visible"/>
	
		<use xlink:href="#_x34_"  width="100" height="23.007" x="-50" y="-11.503" transform="matrix(0.9494 0.3142 0.3142 -0.9494 319.1328 831.4531)" overflow="visible"/>
	<path fill="none" stroke="#000000" stroke-miterlimit="10" d="M558,152.5"/>
	
		<use xlink:href="#_x37_"  width="150" height="50.612" x="-75" y="-25.306" transform="matrix(0.5633 -0.3213 -0.3736 -0.655 197.9556 723.3818)" overflow="visible"/>
	<g id="_x33__1_">
		<path fill="#FF7BAC" stroke="#FF7BAC" stroke-width="3.8006" stroke-miterlimit="10" d="M1817.541,995.703
			c-18.018,5.451-37.035-4.731-42.487-22.751c-5.451-18.018,4.732-37.034,22.75-42.485c18.02-5.452,37.035,4.73,42.486,22.748
			C1845.742,971.233,1835.561,990.252,1817.541,995.703z"/>
		<path fill="none" stroke="#000000" stroke-width="3.8006" stroke-miterlimit="10" d="M1830.544,1003.682
			c-18.018,5.451-37.036-4.731-42.487-22.751c-5.452-18.018,4.732-37.034,22.75-42.485c18.019-5.452,37.035,4.729,42.486,22.747
			C1858.745,979.212,1848.563,998.229,1830.544,1003.682z"/>
	</g>
	<g id="_x32_">
		
			<rect x="304.616" y="964.815" transform="matrix(0.33 -0.944 0.944 0.33 -716.4901 991.7819)" fill="#FCEE21" stroke="#FCEE21" stroke-width="3.8387" stroke-miterlimit="10" width="71.656" height="71.656"/>
		
			<rect x="320.918" y="956.96" transform="matrix(0.33 -0.944 0.944 0.33 -698.1532 1001.9021)" fill="none" stroke="#000000" stroke-width="3.8387" stroke-miterlimit="10" width="71.655" height="71.656"/>
	</g>
	
		<use xlink:href="#_x34_"  width="100" height="23.007" x="-50" y="-11.503" transform="matrix(0.734 -1.103 -1.103 -0.734 1658.3281 996.4023)" overflow="visible"/>
	<g id="_x36__1_">
		<polygon fill="#FCEE21" stroke="#FCEE21" stroke-width="0.6939" stroke-miterlimit="10" points="1555.04,992.803 
			1528.644,935.441 1592.899,940.627 		"/>
		<polygon fill="none" stroke="#000000" stroke-width="3" stroke-miterlimit="10" points="1556.942,981.998 1530.546,924.637 
			1594.802,929.821 		"/>
	</g>
	
		<use xlink:href="#_x37_"  width="150" height="50.612" x="-75" y="-25.306" transform="matrix(0.6978 0.1805 0.1638 -0.6333 1653 865.0342)" overflow="visible"/>
	
		<use xlink:href="#Nouveau_symbole_2_"  width="74" height="61.777" x="-37" y="-30.889" transform="matrix(0.3687 0 0 -0.3687 391.6421 890.5)" overflow="visible"/>
	
		<use xlink:href="#Nouveau_symbole_2_"  width="74" height="61.777" x="-37" y="-30.889" transform="matrix(0.3687 0 0 -0.3687 1567.6426 1031.5)" overflow="visible"/>
	
		<use xlink:href="#Nouveau_symbole_2_"  width="74" height="61.777" x="-37" y="-30.889" transform="matrix(0.0444 0.366 0.366 -0.0444 184.6421 821.5)" overflow="visible"/>
	
		<use xlink:href="#Nouveau_symbole_2_"  width="74" height="61.777" x="-37" y="-30.889" transform="matrix(0.0444 0.366 0.366 -0.0444 1884.6426 1049.5)" overflow="visible"/>
	
		<use xlink:href="#Nouveau_symbole_2_"  width="74" height="61.777" x="-37" y="-30.889" transform="matrix(0.2391 -0.2806 -0.2806 -0.2391 59.6421 714.5)" overflow="visible"/>
	
		<use xlink:href="#Nouveau_symbole_2_"  width="74" height="61.777" x="-37" y="-30.889" transform="matrix(0.2391 -0.2806 -0.2806 -0.2391 1870.6426 708.5)" overflow="visible"/>
	<g id="Nouveau_symbole">
		<polygon points="93.984,1028.709 76.6,1049.033 67.688,1024.449 		"/>
	</g>
	<g id="Nouveau_symbole_1_">
		<polygon points="1770.984,890.709 1753.601,911.033 1744.688,886.449 		"/>
	</g>
</g>
</svg>
