<?xml version="1.0" encoding="iso-8859-1"?>
<!-- Generator: Adobe Illustrator 19.0.0, SVG Export Plug-In . SVG Version: 6.00 Build 0)  -->
<svg version="1.1" id="Capa_1" xmlns="http://www.w3.org/2000/svg" xmlns:xlink="http://www.w3.org/1999/xlink" x="0px" y="0px"
	 viewBox="0 0 480 480" style="enable-background:new 0 0 480 480;" xml:space="preserve">
<g>
	<g>
		<rect x="80" y="304" width="128" height="16"/>
	</g>
</g>
<g>
	<g>
		<rect x="80" y="336" width="128" height="16"/>
	</g>
</g>
<g>
	<g>
		<rect x="80" y="368" width="96" height="16"/>
	</g>
</g>
<g>
	<g>
		<rect x="128" y="272" width="80" height="16"/>
	</g>
</g>
<g>
	<g>
		<rect x="280" y="368" width="64" height="16"/>
	</g>
</g>
<g>
	<g>
		<rect x="280" y="208" width="64" height="16"/>
	</g>
</g>
<g>
	<g>
		<path d="M472,88h-32V40c0-17.673-14.327-32-32-32h-24c-4.418,0-8,3.582-8,8v40h-96c-2.122,0-4.156,0.844-5.656,2.344L240,92.688
			l-34.344-34.344c-1.5-1.5-3.534-2.344-5.656-2.344H48c-4.418,0-8,3.582-8,8v24H8c-4.418,0-8,3.582-8,8v368c0,4.418,3.582,8,8,8
			h464c4.418,0,8-3.582,8-8V96C480,91.582,476.418,88,472,88z M392,24h16c8.837,0,16,7.163,16,16v332.296
			c-4.859-2.822-10.38-4.305-16-4.296h-16V24z M16,456V104h24v320c0,4.418,3.582,8,8,8h148.688l24,24H16z M205.656,418.344
			c-1.5-1.5-3.534-2.344-5.656-2.344H56V72h140.688L232,107.312V424h16V107.312L283.312,72H376v40h-48v16h48v16h-96v16h96v16h-96v16
			h96v80h-48v16h48v16h-96v16h96v16h-96v16h96v24c0,4.418,3.582,8,8,8h24c8.837,0,16,7.163,16,16s-7.163,16-16,16H280
			c-2.122,0-4.156,0.844-5.656,2.344L240,452.688L205.656,418.344z M464,456H259.312l24-24H408c17.673,0,32-14.327,32-32V104h24V456
			z"/>
	</g>
</g>
<g>
	<g>
		<rect x="296" y="112" width="16" height="16"/>
	</g>
</g>
<g>
	<g>
		<rect x="296" y="272" width="16" height="16"/>
	</g>
</g>
<g>
	<g>
		<rect x="96" y="272" width="16" height="16"/>
	</g>
</g>
<g>
	<g>
		<path d="M177.888,144L152,131.056V112h-16v19.056l-27.576,13.784c-2.712,1.355-4.425,4.128-4.424,7.16v32H88v16h22.112
			L136,212.944V232h16v-19.056l27.576-13.744c2.725-1.362,4.441-4.153,4.424-7.2v-32h16v-16H177.888z M168,187.056l-24,12l-24-12
			v-30.112l24-12l24,12V187.056z"/>
	</g>
</g>
<g>
	<g>
		<rect x="184" y="112" width="16" height="16"/>
	</g>
</g>
<g>
	<g>
		<rect x="88" y="216" width="16" height="16"/>
	</g>
</g>
<g>
</g>
<g>
</g>
<g>
</g>
<g>
</g>
<g>
</g>
<g>
</g>
<g>
</g>
<g>
</g>
<g>
</g>
<g>
</g>
<g>
</g>
<g>
</g>
<g>
</g>
<g>
</g>
<g>
</g>
</svg>
