<?xml version="1.0" encoding="utf-8"?>
<!-- Generator: Adobe Illustrator 15.0.2, SVG Export Plug-In . SVG Version: 6.00 Build 0)  -->
<!DOCTYPE svg PUBLIC "-//W3C//DTD SVG 1.1//EN" "http://www.w3.org/Graphics/SVG/1.1/DTD/svg11.dtd">
<svg version="1.1" id="Calque_1" xmlns="http://www.w3.org/2000/svg" xmlns:xlink="http://www.w3.org/1999/xlink" x="0px" y="0px"
	 width="162.25px" height="162px" viewBox="0 0 162.25 162" enable-background="new 0 0 162.25 162" xml:space="preserve">
<g>
	<g>
		<path d="M69.712,111.789c-29.606-0.002-53.771-24.091-53.868-53.698C15.75,28.386,39.839,4.143,69.542,4.047l0.176,0
			c29.606,0,53.771,25.089,53.868,54.697l0.022,6.001l-38.446,0.123l-0.022-7c-0.027-8.479-6.952-15.052-15.423-15.376
			c-10.633-0.408-15.3,6.592-15.428,15.476c-0.122,8.478,6.947,15.377,15.425,15.376l6.979,0l0.096,6.979l0.1,31.444L69.712,111.789
			z"/>
		<path d="M70.826,91.565l-0.038-12.222c-12.362,0.04-22.459-9.992-22.499-22.354c-0.03-9.721,1.985-22.434,22.354-22.498
			c12.361-0.04,22.456,9.992,22.496,22.354l12.223-0.04l12.224-0.039c-0.084-25.85-21.174-46.803-47.021-46.72
			C44.718,10.13,23.762,31.219,23.844,57.068c0.084,25.848,21.174,46.803,47.021,46.72L70.826,91.565z"/>
	</g>
	<path fill="#FFFFFF" d="M15.968,52.149c-0.09-28.013,22.627-50.876,50.64-50.966s50.876,22.627,50.967,50.64l0.012,3.932
		l-32.312,0.104l-0.012-3.932c-0.031-10.197-8.354-18.466-18.552-18.434c-10.196,0.033-18.466,8.355-18.433,18.553
		c0.032,10.197,8.355,18.466,18.551,18.433l3.934-0.012l0.104,32.31l-3.932,0.012C38.921,102.878,16.059,80.162,15.968,52.149z
		 M109.518,47.916c-2.061-21.834-20.533-38.94-42.885-38.869C42.956,9.124,23.756,28.446,23.832,52.124
		c0.071,22.351,17.297,40.713,39.145,42.636l-0.054-16.696C50.242,76.199,40.455,65.268,40.414,52.07
		c-0.047-14.533,11.737-26.395,26.272-26.441c13.198-0.043,24.192,9.673,26.136,22.341L109.518,47.916z"/>
</g>
<g>
	<path d="M126.589,105.418l10.698,0.032l0.025-7.999c0.05-15.71-12.689-28.533-28.492-28.584c-15.66,0-28.441,12.74-28.491,28.399
		c-0.029,9.021,4.226,17.182,10.889,22.451h-10.89v8c0,15.71,12.78,28.492,28.49,28.492c15.712,0,28.494-12.782,28.494-28.492
		C137.313,118.706,133.121,110.655,126.589,105.418z"/>
	<path fill="#FFFFFF" d="M103.818,146.71c-13.504,0-24.49-10.987-24.49-24.492v-4h18.686v4c0,3.201,2.604,5.804,5.805,5.804
		c3.202,0,5.807-2.604,5.807-5.804c0-2.828-3.86-5.933-7.377-5.933h-0.152l-0.152-0.012c-12.723-0.971-22.656-11.73-22.614-24.494
		c0.043-13.46,11.029-24.412,24.491-24.412c13.584,0.044,24.535,11.066,24.492,24.571l-0.013,4l-18.684-0.061l0.011-3.997
		c0.009-3.202-2.588-5.815-5.787-5.825c-3.209,0-5.813,2.596-5.825,5.786c-0.009,2.743,1.914,5.115,4.59,5.687
		c0.312,0.036,0.978,0.111,1.291,0.135c13.469,0.054,24.417,11.048,24.417,24.555C128.313,135.723,117.324,146.71,103.818,146.71z"
		/>
	<path d="M103.789,101.663v0.058V101.663c-0.25,0-1.811-0.181-1.811-0.181c-4.539-0.867-7.979-4.87-7.964-9.655
		c0.02-5.404,4.435-9.789,9.838-9.771c5.404,0.018,9.789,4.431,9.774,9.836l5.343,0.019l5.343,0.016
		c0.036-11.3-9.124-20.522-20.425-20.559s-20.522,9.124-20.559,20.425c-0.035,10.793,8.321,19.684,18.919,20.493l0,0
		c5.404,0,11.377,4.528,11.377,9.933s-4.401,9.804-9.807,9.804c-5.403,0-9.805-4.399-9.805-9.804h-5.343h-5.343
		c0,11.3,9.189,20.492,20.49,20.492s20.494-9.192,20.494-20.492C124.313,110.917,115.091,101.663,103.789,101.663z"/>
</g>
</svg>
