<?xml version="1.0" encoding="utf-8"?>
<!-- Generator: Adobe Illustrator 23.0.1, SVG Export Plug-In . SVG Version: 6.00 Build 0)  -->
<svg version="1.1" id="Calque_1" xmlns="http://www.w3.org/2000/svg" xmlns:xlink="http://www.w3.org/1999/xlink" x="0px" y="0px"
	 viewBox="0 0 528.5 377.8" style="enable-background:new 0 0 528.5 377.8;" xml:space="preserve">
<style type="text/css">
	.st0{fill:#FFFFFF;}
	.st1{opacity:0.3;}
	.st2{fill:none;}
	.st3{fill:#1D1D1B;}
	.st4{fill:none;stroke:#000000;stroke-miterlimit:10;}
	.st5{fill:none;stroke:#000000;stroke-width:0.75;stroke-miterlimit:10;}
	.st6{opacity:0.8;}
	.st7{fill-rule:evenodd;clip-rule:evenodd;fill:#ED586A;}
	.st8{fill-rule:evenodd;clip-rule:evenodd;fill:#3E91E5;}
</style>
<rect class="st0" width="528.7" height="377.8"/>
<g class="st1">
	<g>
		<g>
			<g>
				<g>
					<g>
						<g>
							<rect x="417.1" y="92.2" class="st2" width="15" height="21.1"/>
						</g>
						<g>
							<rect x="423.8" y="97" class="st3" width="1.5" height="11.4"/>
						</g>
						<rect x="423.9" y="110.1" class="st3" width="1.5" height="2.3"/>
						<rect x="423.9" y="93.1" class="st3" width="1.5" height="2.3"/>
					</g>
				</g>
				<g>
					<g>
						<g>
							<rect x="417.1" y="71.1" class="st2" width="15" height="21.1"/>
						</g>
						<g>
							<rect x="423.8" y="75.9" class="st3" width="1.5" height="11.4"/>
						</g>
						<rect x="423.9" y="89" class="st3" width="1.5" height="2.3"/>
						<rect x="423.9" y="72" class="st3" width="1.5" height="2.3"/>
					</g>
				</g>
				<g>
					<g>
						<g>
							<rect x="417.1" y="50" class="st2" width="15" height="21.1"/>
						</g>
						<g>
							<rect x="423.8" y="54.8" class="st3" width="1.5" height="11.4"/>
						</g>
						<rect x="423.9" y="67.9" class="st3" width="1.5" height="2.3"/>
						<rect x="423.9" y="50.8" class="st3" width="1.5" height="2.3"/>
					</g>
				</g>
				<g>
					<g>
						<g>
							<rect x="432.1" y="35" class="st2" width="21.2" height="15"/>
						</g>
						<g>
							<rect x="437" y="41.7" class="st3" width="11.4" height="1.5"/>
						</g>
						<rect x="433" y="41.7" class="st3" width="2.3" height="1.5"/>
						<rect x="450.1" y="41.7" class="st3" width="2.3" height="1.5"/>
					</g>
				</g>
				<g>
					<g>
						<g>
							<rect x="453.3" y="35" class="st2" width="21.2" height="15"/>
						</g>
						<g>
							<rect x="458.2" y="41.7" class="st3" width="11.4" height="1.5"/>
						</g>
						<rect x="454.2" y="41.7" class="st3" width="2.3" height="1.5"/>
						<rect x="471.3" y="41.7" class="st3" width="2.3" height="1.5"/>
					</g>
				</g>
				<g>
					<g>
						<g>
							<rect x="474.5" y="50" class="st2" width="15" height="21.1"/>
						</g>
						<g>
							<rect x="481.3" y="54.8" class="st3" width="1.5" height="11.4"/>
						</g>
						<rect x="481.3" y="50.8" class="st3" width="1.5" height="2.3"/>
						<rect x="481.3" y="67.9" class="st3" width="1.5" height="2.3"/>
					</g>
				</g>
				<g>
					<g>
						<g>
							<rect x="474.5" y="71.1" class="st2" width="15" height="21.1"/>
						</g>
						<g>
							<rect x="481.3" y="75.9" class="st3" width="1.5" height="11.4"/>
						</g>
						<rect x="481.3" y="71.9" class="st3" width="1.5" height="2.3"/>
						<rect x="481.3" y="89" class="st3" width="1.5" height="2.3"/>
					</g>
				</g>
				<g>
					<g>
						<g>
							<rect x="474.5" y="92.2" class="st2" width="15" height="21.1"/>
						</g>
						<g>
							<rect x="481.3" y="97" class="st3" width="1.5" height="11.4"/>
						</g>
						<rect x="481.3" y="93" class="st3" width="1.5" height="2.3"/>
						<rect x="481.3" y="110.1" class="st3" width="1.5" height="2.3"/>
					</g>
				</g>
				<g>
					<g>
						<g>
							<rect x="453.3" y="113.3" class="st2" width="21.2" height="15"/>
						</g>
						<g>
							<rect x="458.2" y="120" class="st3" width="11.4" height="1.5"/>
						</g>
						<rect x="471.4" y="120" class="st3" width="2.3" height="1.5"/>
						<rect x="454.2" y="120" class="st3" width="2.3" height="1.5"/>
					</g>
				</g>
				<g>
					<g>
						<g>
							<rect x="432.1" y="113.3" class="st2" width="21.2" height="15"/>
						</g>
						<g>
							<rect x="437" y="120" class="st3" width="11.4" height="1.5"/>
						</g>
						<rect x="450.1" y="120" class="st3" width="2.3" height="1.5"/>
						<rect x="433" y="120" class="st3" width="2.3" height="1.5"/>
					</g>
				</g>
				<g>
					<polygon class="st3" points="431.3,43.2 431.3,41.7 423.8,41.7 423.8,49.2 425.3,49.2 425.3,43.2 					"/>
				</g>
				<g>
					<polygon class="st3" points="481.3,49.2 482.8,49.2 482.8,41.7 475.3,41.7 475.3,43.2 481.3,43.2 					"/>
				</g>
				<g>
					<polygon class="st3" points="475.3,120 475.3,121.5 482.8,121.5 482.8,114 481.3,114 481.3,120 					"/>
				</g>
				<g>
					<polygon class="st3" points="425.3,114.1 423.8,114.1 423.8,121.5 431.4,121.5 431.4,120 425.3,120 					"/>
				</g>
			</g>
		</g>
	</g>
	<g>
		<path class="st4" d="M332.9,97.5c9.7-1.5,10.6,4.5,20.2,3s8.8-7.4,18.4-8.9s10.6,4.5,20.2,3s8.8-7.4,18.4-8.9
			c9.7-1.5,10.6,4.5,20.2,3"/>
	</g>
	<g>
		<path class="st4" d="M333.6,102.3c9.7-1.5,10.6,4.5,20.2,3s8.8-7.4,18.4-8.9s10.6,4.5,20.2,3s8.8-7.4,18.4-8.9
			c9.7-1.5,10.6,4.5,20.2,3"/>
	</g>
	<g>
		<path class="st4" d="M334.3,107.1c9.7-1.5,10.6,4.5,20.2,3s8.8-7.4,18.4-8.9s10.6,4.5,20.2,3s8.8-7.4,18.4-8.9s10.6,4.5,20.2,3"/>
	</g>
	<g>
		<path class="st4" d="M335.1,111.9c9.7-1.5,10.6,4.5,20.2,3s8.8-7.4,18.4-8.9s10.6,4.5,20.2,3s8.8-7.4,18.4-8.9s10.6,4.5,20.2,3"/>
	</g>
	<g>
		<path class="st4" d="M335.8,116.8c9.7-1.5,10.6,4.5,20.2,3s8.8-7.4,18.4-8.9s10.6,4.5,20.2,3s8.8-7.4,18.4-8.9
			c9.7-1.5,10.6,4.5,20.2,3"/>
	</g>
	<g>
		<g>
			<circle class="st5" cx="372" cy="81.8" r="28"/>
		</g>
		<g>
			<path class="st5" d="M371.9,107.3c-14.1,0-25.5-11.4-25.5-25.5s11.4-25.5,25.5-25.5s25.5,11.4,25.5,25.5S386,107.3,371.9,107.3z"
				/>
		</g>
	</g>
</g>
<g class="st1">
	<line class="st5" x1="265.2" y1="69.2" x2="265.2" y2="320"/>
</g>
<g>
	<polygon class="st2" points="33.8,60 115.6,60 167.6,-30 85.8,-30 	"/>
</g>
<g>
	<polygon class="st2" points="115.6,60 197.4,60 249.3,-30 167.6,-30 	"/>
</g>
<g>
	<polygon class="st2" points="197.4,60 279.2,60 331.1,-30 249.3,-30 	"/>
</g>
<g>
	<polygon class="st2" points="279.2,60 361,60 412.9,-30 331.1,-30 	"/>
</g>
<g>
	<polygon class="st2" points="361,60 442.8,60 494.7,-30 412.9,-30 	"/>
</g>
<g>
	<polygon class="st2" points="468.7,34 468.7,120 558.7,171.9 558.7,86 	"/>
</g>
<g>
	<polygon class="st2" points="468.7,120 468.7,205.9 558.7,257.9 558.7,171.9 	"/>
</g>
<g>
	<polygon class="st2" points="468.7,205.9 468.7,291.8 558.7,343.8 558.7,257.9 	"/>
</g>
<g>
	<polygon class="st2" points="494.7,317.8 412.9,317.8 361,407.8 442.8,407.8 	"/>
</g>
<g>
	<polygon class="st2" points="412.9,317.8 331.1,317.8 279.2,407.8 361,407.8 	"/>
</g>
<g>
	<polygon class="st2" points="331.1,317.8 249.3,317.8 197.4,407.8 279.2,407.8 	"/>
</g>
<g>
	<polygon class="st2" points="249.3,317.8 167.6,317.8 115.6,407.8 197.4,407.8 	"/>
</g>
<g>
	<polygon class="st2" points="167.6,317.8 85.8,317.8 33.8,407.8 115.6,407.8 	"/>
</g>
<g>
	<polygon class="st2" points="59.8,343.8 59.8,257.9 -30.2,205.9 -30.2,291.8 	"/>
</g>
<g>
	<polygon class="st2" points="59.8,257.9 59.8,171.9 -30.2,120 -30.2,205.9 	"/>
</g>
<g>
	<polygon class="st2" points="59.8,171.9 59.8,86 -30.2,34 -30.2,120 	"/>
</g>
<g class="st6">
	<g>
		<polygon class="st7" points="122.2,11.8 117,20.8 132.2,20.8 137.4,11.8 		"/>
		<polygon class="st7" points="67.8,11.8 62.6,20.8 77.8,20.8 83,11.8 		"/>
		<polygon class="st7" points="176.8,11.8 171.6,20.8 186.7,20.8 191.9,11.8 		"/>
		<polygon class="st7" points="285.8,11.8 280.6,20.8 295.8,20.8 301,11.8 		"/>
		<polygon class="st7" points="231.4,11.8 226.2,20.8 241.4,20.8 246.6,11.8 		"/>
		<polygon class="st7" points="340.3,11.8 335.1,20.8 350.3,20.8 355.5,11.8 		"/>
		<polygon class="st7" points="449.3,11.8 444.1,20.8 459.3,20.8 464.5,11.8 		"/>
		<polygon class="st7" points="395,11.8 389.8,20.8 405,20.8 410.2,11.8 		"/>
		<polygon class="st7" points="516.9,125.5 507.9,120.3 507.9,136.2 516.9,141.4 		"/>
		<polygon class="st7" points="516.9,68.3 507.9,63.2 507.9,79.1 516.9,84.3 		"/>
		<polygon class="st7" points="516.9,182.8 507.9,177.6 507.9,193.6 516.9,198.8 		"/>
		<polygon class="st7" points="516.9,297.4 507.9,292.1 507.9,308.1 516.9,313.3 		"/>
		<polygon class="st7" points="516.9,240.2 507.9,235 507.9,251 516.9,256.2 		"/>
		<polygon class="st7" points="406.3,366 411.5,357 396.3,357 391.1,366 		"/>
		<polygon class="st7" points="460.7,366 465.9,357 450.7,357 445.5,366 		"/>
		<polygon class="st7" points="351.8,366 357,357 341.8,357 336.6,366 		"/>
		<polygon class="st7" points="242.8,366 247.9,357 232.8,357 227.6,366 		"/>
		<polygon class="st7" points="297.1,366 302.3,357 287.1,357 281.9,366 		"/>
		<polygon class="st7" points="188.2,366 193.4,357 178.2,357 173,366 		"/>
		<polygon class="st7" points="79.2,366 84.4,357 69.2,357 64,366 		"/>
		<polygon class="st7" points="133.5,366 138.7,357 123.6,357 118.4,366 		"/>
		<polygon class="st7" points="11.6,252.3 20.6,257.5 20.6,241.6 11.6,236.4 		"/>
		<polygon class="st7" points="11.6,309.5 20.6,314.7 20.6,298.7 11.6,293.5 		"/>
		<polygon class="st7" points="11.6,195 20.6,200.2 20.6,184.3 11.6,179.1 		"/>
		<polygon class="st7" points="11.6,80.5 20.6,85.7 20.6,69.7 11.6,64.5 		"/>
		<polygon class="st7" points="11.6,137.6 20.6,142.8 20.6,126.8 11.6,121.6 		"/>
		<polygon class="st7" points="516.9,11.2 501.9,11.2 501.9,20.2 507.9,20.2 507.9,26.2 516.9,26.2 		"/>
		<polygon class="st7" points="517.5,366 517.5,351 508.5,351 508.5,357 502.5,357 502.5,366 		"/>
		<polygon class="st7" points="11.6,366.6 26.6,366.6 26.6,357.6 20.6,357.6 20.6,351.6 11.6,351.6 		"/>
		<polygon class="st7" points="11,11.8 11,26.8 20,26.8 20,20.8 26,20.8 26,11.8 		"/>
	</g>
	<g>
		<g>
			<polygon class="st8" points="95,11.8 89.8,20.8 104.9,20.8 110.1,11.8 			"/>
			<polygon class="st8" points="204,11.8 198.8,20.8 214,20.8 219.2,11.8 			"/>
			<polygon class="st8" points="149.6,11.8 144.4,20.8 159.6,20.8 164.8,11.8 			"/>
			<polygon class="st8" points="258.5,11.8 253.3,20.8 268.5,20.8 273.7,11.8 			"/>
			<polygon class="st8" points="367.5,11.8 362.4,20.8 377.5,20.8 382.7,11.8 			"/>
			<polygon class="st8" points="313.2,11.8 308,20.8 323.2,20.8 328.4,11.8 			"/>
			<polygon class="st8" points="422.1,11.8 416.9,20.8 432.1,20.8 437.3,11.8 			"/>
			<g>
				<polygon class="st8" points="516.9,96.9 507.9,91.7 507.9,107.6 516.9,112.8 				"/>
			</g>
			<g>
				<polygon class="st8" points="516.9,211.4 507.9,206.2 507.9,222.2 516.9,227.4 				"/>
			</g>
			<g>
				<polygon class="st8" points="516.9,154.3 507.9,149.1 507.9,165 516.9,170.2 				"/>
			</g>
			<g>
				<polygon class="st8" points="516.9,268.7 507.9,263.5 507.9,279.5 516.9,284.7 				"/>
			</g>
			<g>
				<polygon class="st8" points="433.5,366 438.8,357 423.6,357 418.4,366 				"/>
			</g>
			<g>
				<polygon class="st8" points="324.5,366 329.7,357 314.5,357 309.4,366 				"/>
			</g>
			<g>
				<polygon class="st8" points="378.9,366 384.1,357 368.9,357 363.7,366 				"/>
			</g>
			<g>
				<polygon class="st8" points="270,366 275.2,357 260,357 254.8,366 				"/>
			</g>
			<g>
				<polygon class="st8" points="161,366 166.2,357 151,357 145.8,366 				"/>
			</g>
			<g>
				<polygon class="st8" points="215.3,366 220.5,357 205.3,357 200.1,366 				"/>
			</g>
			<g>
				<polygon class="st8" points="106.4,366 111.6,357 96.4,357 91.2,366 				"/>
			</g>
			<g>
				<polygon class="st8" points="11.6,281 20.6,286.1 20.6,270.2 11.6,265 				"/>
			</g>
			<g>
				<polygon class="st8" points="11.6,166.4 20.6,171.6 20.6,155.6 11.6,150.4 				"/>
			</g>
			<g>
				<polygon class="st8" points="11.6,223.5 20.6,228.7 20.6,212.8 11.6,207.6 				"/>
			</g>
			<g>
				<polygon class="st8" points="11.6,109.1 20.6,114.3 20.6,98.3 11.6,93.1 				"/>
			</g>
			<polygon class="st8" points="477.7,11.2 472.5,20.2 487.5,20.2 492.7,11.2 			"/>
			<g>
				<polygon class="st8" points="516.9,40.6 507.9,35.4 507.9,50.4 516.9,55.6 				"/>
			</g>
			<g>
				<polygon class="st8" points="517.5,326.8 508.5,321.6 508.5,336.6 517.5,341.8 				"/>
			</g>
			<g>
				<polygon class="st8" points="488.1,366 493.3,357 478.3,357 473.1,366 				"/>
			</g>
			<g>
				<polygon class="st8" points="50.8,366.6 56,357.6 41,357.6 35.8,366.6 				"/>
			</g>
			<g>
				<polygon class="st8" points="11.6,337.2 20.6,342.4 20.6,327.4 11.6,322.2 				"/>
			</g>
			<g>
				<polygon class="st8" points="11,51 20,56.3 20,41.2 11,36 				"/>
			</g>
			<polygon class="st8" points="40.4,11.8 35.2,20.8 50.2,20.8 55.4,11.8 			"/>
		</g>
	</g>
</g>
</svg>
